<!DOCTYPE svg PUBLIC "-//W3C//DTD SVG 20010904//EN" "http://www.w3.org/TR/2001/REC-SVG-20010904/DTD/svg10.dtd">
<svg version="1.0" xmlns="http://www.w3.org/2000/svg" width="226px" height="187px" viewBox="0 0 2260 1870" preserveAspectRatio="xMidYMid meet">
<g id="layer1" fill="#000000" stroke="none">
 <path d="M345 1703 c-31 -6 -109 -35 -115 -42 -3 -4 -19 -16 -36 -26 -51 -33 -104 -100 -124 -159 -28 -77 -27 -220 0 -302 30 -87 128 -183 212 -207 l43 -13 10 -84 c6 -47 14 -92 17 -100 4 -8 12 -45 18 -83 7 -37 21 -84 32 -105 11 -20 28 -61 39 -89 11 -29 26 -56 33 -60 6 -5 24 -29 39 -55 25 -43 171 -198 187 -198 4 0 24 -13 44 -29 21 -17 58 -38 84 -47 26 -10 49 -21 52 -24 3 -3 34 -15 70 -25 92 -28 288 -28 380 0 36 10 67 22 70 25 3 3 26 14 52 24 26 9 63 30 84 47 20 16 40 29 44 29 16 0 162 155 187 198 15 26 33 50 39 55 7 4 22 31 33 60 11 28 28 69 39 89 11 21 25 68 32 105 6 38 14 75 18 83 3 8 11 53 17 99 l10 84 42 12 c84 25 183 123 213 209 27 82 28 225 0 302 -20 59 -73 126 -124 159 -17 10 -33 22 -36 25 -10 12 -87 38 -133 45 -26 4 -77 4 -113 0 -110 -12 -104 10 -104 -376 0 -208 4 -337 10 -350 6 -10 21 -19 34 -19 12 0 25 -2 28 -5 7 -8 -22 -219 -33 -229 -5 -6 -9 -19 -9 -31 0 -24 -78 -182 -116 -235 -41 -58 -153 -157 -208 -184 -77 -38 -126 -56 -151 -56 -12 0 -24 -3 -28 -6 -7 -8 -167 -8 -174 0 -4 3 -16 6 -28 6 -25 0 -74 18 -151 56 -54 26 -166 125 -208 184 -33 45 -116 213 -116 234 0 9 -4 24 -10 34 -11 19 -39 220 -31 227 2 3 15 5 27 5 13 0 28 9 34 19 16 31 14 672 -3 695 -21 29 -147 46 -222 29z"/>
 </g>
<g id="layer2" fill="#e78618" stroke="none">
 <path d="M983 1793 c-18 -2 -33 -8 -33 -14 0 -5 -12 -9 -26 -9 -14 0 -23 -4 -19 -10 3 -5 -3 -10 -14 -10 -12 0 -21 -5 -21 -11 0 -7 -10 -9 -25 -7 -13 3 -22 1 -19 -4 5 -8 -19 -38 -31 -38 -10 0 -85 -80 -85 -91 0 -5 -4 -9 -10 -9 -5 0 -10 -7 -10 -15 0 -8 -4 -15 -10 -15 -5 0 -10 -7 -10 -15 0 -8 -4 -15 -10 -15 -5 0 -10 -9 -10 -21 0 -11 -4 -17 -10 -14 -6 4 -10 -5 -10 -19 0 -14 -4 -26 -10 -26 -5 0 -10 -13 -10 -30 0 -16 -4 -30 -9 -30 -5 0 -11 -38 -13 -84 -2 -64 0 -82 10 -79 6 3 12 0 12 -6 0 -8 148 -11 525 -11 380 0 525 3 525 11 0 6 8 9 18 7 15 -4 17 3 14 79 -2 45 -8 83 -13 83 -5 0 -9 14 -9 30 0 17 -4 30 -10 30 -5 0 -10 12 -10 26 0 14 -4 23 -10 19 -5 -3 -10 3 -10 14 0 12 -4 21 -10 21 -5 0 -10 7 -10 15 0 8 -4 15 -10 15 -5 0 -10 7 -10 15 0 8 -4 15 -10 15 -5 0 -10 6 -10 13 0 7 -9 18 -20 25 -11 7 -20 19 -20 27 0 8 -7 15 -15 15 -8 0 -15 5 -15 10 0 6 -5 10 -11 10 -15 0 -41 28 -35 38 3 5 -6 7 -19 4 -15 -2 -25 0 -25 7 0 6 -7 11 -15 11 -8 0 -15 5 -15 10 0 6 -11 10 -24 10 -13 0 -26 5 -28 12 -4 12 -276 21 -345 11z"/>
 </g>
<g id="layer3" fill="#92e3ea" stroke="none">
 <path d="M850 1085 c0 -41 4 -65 11 -65 6 0 9 -8 6 -19 -3 -15 0 -17 16 -13 14 3 18 1 13 -6 -5 -8 3 -12 23 -12 17 0 31 -4 31 -10 0 -6 73 -10 200 -10 l200 0 0 -30 c0 -25 -4 -30 -25 -30 -14 0 -25 -4 -25 -10 0 -6 -70 -10 -190 -10 -120 0 -190 -4 -190 -10 0 -5 -5 -10 -11 -10 -7 0 -20 -9 -30 -21 -10 -11 -22 -18 -27 -15 -4 3 -6 -8 -4 -25 3 -17 0 -29 -7 -29 -6 0 -11 -16 -11 -35 0 -19 5 -35 10 -35 6 0 10 -11 10 -25 0 -14 5 -25 11 -25 6 0 9 -8 6 -19 -3 -14 0 -17 14 -14 11 3 19 0 19 -6 0 -6 9 -11 20 -11 11 0 20 -4 20 -10 0 -6 42 -10 105 -10 96 0 105 -2 105 -19 0 -22 19 -31 66 -31 l34 0 0 50 c0 41 -5 56 -25 75 -23 24 -31 25 -135 25 -119 0 -140 8 -140 50 0 47 15 50 234 50 131 0 206 4 206 10 0 6 9 10 20 10 11 0 20 7 20 15 0 8 5 15 10 15 6 0 10 9 10 20 0 11 5 20 10 20 6 0 10 25 10 55 0 34 -4 55 -11 55 -7 0 -9 10 -7 24 4 19 1 23 -10 18 -11 -4 -14 -1 -9 10 4 12 1 14 -16 10 -19 -5 -20 -3 -10 9 11 13 8 15 -17 11 -18 -3 -30 0 -30 7 0 8 -61 11 -205 11 l-205 0 0 26 c0 14 -4 23 -10 19 -5 -3 -10 3 -10 14 0 18 -6 21 -40 21 l-40 0 0 -65z"/>
 </g>

</svg>
